<svg width="44" height="44" viewBox="0 0 44 44" fill="none" xmlns="http://www.w3.org/2000/svg">
<rect width="44" height="44" fill="#1185FE"/>
<mask id="mask0_3960_1840" style="mask-type:luminance" maskUnits="userSpaceOnUse" x="4" y="6" width="36" height="32">
<path d="M40 6H4V37.5H40V6Z" fill="white"/>
</mask>
<g mask="url(#mask0_3960_1840)">
<path d="M12.1372 8.61921C16.1269 11.5862 20.4182 17.6021 21.9939 20.8304C23.5697 17.6024 27.8609 11.5862 31.8507 8.61921C34.7295 6.47834 39.394 4.82187 39.394 10.0929C39.394 11.1456 38.7846 18.936 38.4272 20.2008C37.1851 24.598 32.6586 25.7194 28.6323 25.0406C35.6703 26.2272 37.4606 30.1575 33.5941 34.0878C26.2507 41.552 23.0395 32.2149 22.2163 29.8224C22.0654 29.3839 21.9949 29.1787 21.9939 29.3531C21.9929 29.1787 21.9222 29.3839 21.7715 29.8224C20.9486 32.2149 17.7374 41.5522 10.3936 34.0878C6.52695 30.1575 8.31728 26.227 15.3554 25.0406C11.3289 25.7194 6.8024 24.5978 5.5604 20.2008C5.20303 18.936 4.59375 11.1454 4.59375 10.0929C4.59375 4.82187 9.25848 6.47834 12.1372 8.61921Z" fill="white"/>
</g>
</svg>
