<svg width="44" height="44" viewBox="0 0 44 44" fill="none" xmlns="http://www.w3.org/2000/svg">
<path d="M43.3334 0.666504H0.666748V43.3332H43.3334V0.666504Z" fill="white"/>
<path d="M0 0V44H44V0H0ZM14.6667 34.8333H9.16667V14.6666H14.6667V34.8333ZM11.9167 12.342C10.1457 12.342 8.70833 10.8937 8.70833 9.108C8.70833 7.32233 10.1457 5.874 11.9167 5.874C13.6876 5.874 15.125 7.32233 15.125 9.108C15.125 10.8937 13.6895 12.342 11.9167 12.342ZM36.6667 34.8333H31.1667V24.5593C31.1667 18.3847 23.8334 18.8521 23.8334 24.5593V34.8333H18.3333V14.6666H23.8334V17.9025C26.3945 13.1615 36.6667 12.8113 36.6667 22.4418V34.8333Z" fill="#2867B2"/>
</svg>
